<svg xmlns="http://www.w3.org/2000/svg" width="64" height="64" viewBox="0 0 64 64"><defs><style>.cls-1{fill:#1abc9c;fill-rule:evenodd}</style></defs><path id="Icon" class="cls-1" d="M223.327 943.033h41.312a10.329 10.329 0 0 1 10.328 10.328v41.311A10.326 10.326 0 0 1 264.639 1005h-41.312A10.325 10.325 0 0 1 213 994.672v-41.311a10.328 10.328 0 0 1 10.327-10.328zm2.066 6.2h37.18a6.2 6.2 0 0 1 6.2 6.2v37.18a6.2 6.2 0 0 1-6.2 6.2h-37.18a6.2 6.2 0 0 1-6.2-6.2v-37.18a6.2 6.2 0 0 1 6.2-6.203zm49.574 12.393l-6.2 6.2H250.18V949.23l6.2-6.2h18.591v18.59zM261.75 946.3l9.907 9.846-21.795 21.659-9.906-9.845zm4.48-4.455l9.907 9.845-2.972 2.954-9.907-9.845zm-27.653 27.487l9.906 9.845-13.869 3.938zm31.492-27.61l6.191 6.153a2.69 2.69 0 0 1-.123 3.815 2.73 2.73 0 0 1-3.839.123l-6.192-6.153a2.69 2.69 0 0 1 .124-3.815 2.732 2.732 0 0 1 3.839-.122z" transform="translate(-213 -941)"/></svg>