<svg xmlns="http://www.w3.org/2000/svg" width="16" height="16" viewBox="0 0 16 16"><defs><style>.cls-1{fill:#fff;fill-rule:evenodd}</style></defs><path id="Icon" class="cls-1" d="M1043.01 1440.49a6.51 6.51 0 1 1-6.51-6.49 6.5 6.5 0 0 1 6.51 6.49zm-10.99 4.12l.34.34a.477.477 0 0 1 0 .68l-1.7 1.7a.5.5 0 0 1-.68 0l-.34-.34a.477.477 0 0 1 0-.68l1.7-1.7a.5.5 0 0 1 .68 0zm-1.82 1.01l1.14 1.15a.52.52 0 0 1 0 .76l-2.28 2.28a.549.549 0 0 1-.77 0l-1.14-1.14a.537.537 0 0 1 0-.76l2.29-2.29a.537.537 0 0 1 .76 0zm10.3-5.13a4 4 0 1 1-4-3.99 4 4 0 0 1 4 3.99z" transform="translate(-1027 -1434)"/></svg>