<svg xmlns="http://www.w3.org/2000/svg" width="51" height="64" viewBox="0 0 51 64">
  <metadata><?xpacket begin="﻿" id="W5M0MpCehiHzreSzNTczkc9d"?>
<x:xmpmeta xmlns:x="adobe:ns:meta/" x:xmptk="Adobe XMP Core 5.6-c138 79.159824, 2016/09/14-01:09:01        ">
   <rdf:RDF xmlns:rdf="http://www.w3.org/1999/02/22-rdf-syntax-ns#">
      <rdf:Description rdf:about=""/>
   </rdf:RDF>
</x:xmpmeta>
                                                                                                    
                                                                                                    
                                                                                                    
                                                                                                    
                                                                                                    
                                                                                                    
                                                                                                    
                                                                                                    
                                                                                                    
                                                                                                    
                                                                                                    
                                                                                                    
                                                                                                    
                                                                                                    
                                                                                                    
                                                                                                    
                                                                                                    
                                                                                                    
                                                                                                    
                                                                                                    
                           
<?xpacket end="w"?></metadata>
<defs>
    <style>
      .cls-1 {
        fill: #1abc9c;
        fill-rule: evenodd;
      }
    </style>
  </defs>
  <path id="Icon" class="cls-1" d="M939.625,994.333c-1.874-1.022-2.125-4.267-2.125-4.267l-5.806,8.445a4.37,4.37,0,0,0,1.556,5.909,4.219,4.219,0,0,0,5.8-1.58l4.82-8.507S941.407,995.38,939.625,994.333Zm27.625-49.752c-12.2-7.36-27.792-2.993-34.834,9.755s-2.863,29.046,9.334,36.406,27.792,2.991,34.833-9.755S979.446,951.94,967.25,944.581ZM980,979.4s-0.474-21.532-14.875-29.034c-13.241-6.9-24.438,2.082-27.625,7.7-4.95,8.725-.614,20.338,6.375,25.6,8.5,6.4,20.568,5.689,23.585-2.505,4.534-12.319-4.458-19.354-8.685-19.808-7.73-.832-9.825,2.951-11.3,6.723-3.6,9.19,7.026,9.19,7.026,9.19s-4.249-10.666,2.255-9.345c4.456,0.9,8.01,4.707,5.885,8.453-3.188,5.619-9.295,10.32-14.994,5.362C937.6,973,939.736,965.408,941.5,962.12c1.329-2.475,6.305-12.013,19.408-6.25,20.795,9.147,11.626,33.811,11.626,33.811Z" transform="translate(-929 -941)"/>
</svg>
