<svg xmlns="http://www.w3.org/2000/svg" width="64" height="64" viewBox="0 0 64 64">
  <metadata><?xpacket begin="﻿" id="W5M0MpCehiHzreSzNTczkc9d"?>
<x:xmpmeta xmlns:x="adobe:ns:meta/" x:xmptk="Adobe XMP Core 5.6-c138 79.159824, 2016/09/14-01:09:01        ">
   <rdf:RDF xmlns:rdf="http://www.w3.org/1999/02/22-rdf-syntax-ns#">
      <rdf:Description rdf:about=""/>
   </rdf:RDF>
</x:xmpmeta>
                                                                                                    
                                                                                                    
                                                                                                    
                                                                                                    
                                                                                                    
                                                                                                    
                                                                                                    
                                                                                                    
                                                                                                    
                                                                                                    
                                                                                                    
                                                                                                    
                                                                                                    
                                                                                                    
                                                                                                    
                                                                                                    
                                                                                                    
                                                                                                    
                                                                                                    
                                                                                                    
                           
<?xpacket end="w"?></metadata>
<defs>
    <style>
      .cls-1 {
        fill: #1abc9c;
        fill-rule: evenodd;
      }
    </style>
  </defs>
  <path id="Icon" class="cls-1" d="M223.327,943.033h41.312a10.329,10.329,0,0,1,10.328,10.328v41.311A10.326,10.326,0,0,1,264.639,1005H223.327A10.325,10.325,0,0,1,213,994.672V953.361A10.328,10.328,0,0,1,223.327,943.033Zm2.066,6.2h37.18a6.2,6.2,0,0,1,6.2,6.2v37.18a6.2,6.2,0,0,1-6.2,6.2h-37.18a6.2,6.2,0,0,1-6.2-6.2v-37.18A6.2,6.2,0,0,1,225.393,949.23Zm49.574,12.393-6.2,6.2H250.18V949.23l6.2-6.2h18.591v18.59ZM261.75,946.3l9.907,9.846-21.795,21.659-9.906-9.845Zm4.48-4.455,9.907,9.845-2.972,2.954-9.907-9.845Zm-27.653,27.487,9.906,9.845-13.869,3.938Zm31.492-27.61,6.191,6.153a2.69,2.69,0,0,1-.123,3.815,2.73,2.73,0,0,1-3.839.123l-6.192-6.153a2.69,2.69,0,0,1,.124-3.815A2.732,2.732,0,0,1,270.069,941.723Z" transform="translate(-213 -941)"/>
</svg>
