<svg xmlns="http://www.w3.org/2000/svg" width="38" height="38" viewBox="0 0 38 38">
  <metadata><?xpacket begin="﻿" id="W5M0MpCehiHzreSzNTczkc9d"?>
<x:xmpmeta xmlns:x="adobe:ns:meta/" x:xmptk="Adobe XMP Core 5.6-c138 79.159824, 2016/09/14-01:09:01        ">
   <rdf:RDF xmlns:rdf="http://www.w3.org/1999/02/22-rdf-syntax-ns#">
      <rdf:Description rdf:about=""/>
   </rdf:RDF>
</x:xmpmeta>
                                                                                                    
                                                                                                    
                                                                                                    
                                                                                                    
                                                                                                    
                                                                                                    
                                                                                                    
                                                                                                    
                                                                                                    
                                                                                                    
                                                                                                    
                                                                                                    
                                                                                                    
                                                                                                    
                                                                                                    
                                                                                                    
                                                                                                    
                                                                                                    
                                                                                                    
                                                                                                    
                           
<?xpacket end="w"?></metadata>
<defs>
    <style>
      .cls-1 {
        fill: #1abc9c;
        fill-rule: evenodd;
      }
    </style>
  </defs>
  <path id="dribbble" class="cls-1" d="M600,2944a19,19,0,1,1-19,19A19,19,0,0,1,600,2944Zm0,3.8a15.2,15.2,0,1,1-15.2,15.2A15.2,15.2,0,0,1,600,2947.8Zm-7.6,0s11.4,13.93,13.933,30.4l2.533-2.53s-2.533-16.47-13.933-29.14Zm17.733,2.53A32.6,32.6,0,0,1,600,2956.67a38.655,38.655,0,0,1-17.734,2.53v2.53s12.667,3.8,31.667-10.13Zm-22.8,24.07s7.6-17.73,29.133-11.4v2.53s-17.733-6.33-26.6,10.14Z" transform="translate(-581 -2944)"/>
</svg>
